<svg width="1500" height="500" viewBox="0 0 1500 500" fill="none" xmlns="http://www.w3.org/2000/svg">
<rect width="1500" height="500" fill="#2A83FF"/>
<path d="M634.035 250.585C634.035 263.367 631.794 274.904 627.312 285.196C622.83 295.322 616.522 304.037 608.388 311.341C600.254 318.645 590.543 324.289 579.255 328.273C568.133 332.091 555.849 334 542.403 334H515.76C501.65 334 491.441 330.514 485.133 323.542C478.991 316.57 475.92 307.191 475.92 295.405V204.52C475.92 192.734 478.991 183.355 485.133 176.383C491.441 169.411 501.65 165.925 515.76 165.925H542.403C560.829 165.925 576.848 169.494 590.46 176.632C604.238 183.604 614.945 193.398 622.581 206.014C630.217 218.63 634.035 233.487 634.035 250.585ZM586.725 250.585C586.725 242.119 584.899 234.732 581.247 228.424C577.595 222.116 572.449 217.219 565.809 213.733C559.169 210.081 551.367 208.255 542.403 208.255H521.985V292.915H542.403C549.209 292.915 555.268 291.919 560.58 289.927C566.058 287.935 570.706 285.113 574.524 281.461C578.508 277.643 581.496 273.161 583.488 268.015C585.646 262.703 586.725 256.893 586.725 250.585ZM701.236 334H656.416V265.027C656.416 253.905 658.574 243.862 662.89 234.898C667.206 225.934 673.763 218.796 682.561 213.484C691.359 208.172 702.481 205.516 715.927 205.516C720.243 205.516 724.476 205.931 728.626 206.761C732.942 207.425 736.677 208.421 739.831 209.749V252.826C736.843 251.166 733.606 249.921 730.12 249.091C726.634 248.261 723.314 247.846 720.16 247.846C714.35 247.846 709.702 249.506 706.216 252.826C702.896 255.98 701.236 260.545 701.236 266.521V334ZM753.555 209.5H798.375V334H753.555V209.5ZM775.965 196.303C771.151 196.303 766.669 195.141 762.519 192.817C758.369 190.327 755.049 187.007 752.559 182.857C750.235 178.707 749.073 174.225 749.073 169.411C749.073 164.431 750.235 159.949 752.559 155.965C755.049 151.815 758.369 148.578 762.519 146.254C766.669 143.764 771.151 142.519 775.965 142.519C780.945 142.519 785.427 143.764 789.411 146.254C793.561 148.578 796.798 151.815 799.122 155.965C801.612 159.949 802.857 164.431 802.857 169.411C802.857 174.225 801.612 178.707 799.122 182.857C796.798 187.007 793.561 190.327 789.411 192.817C785.427 195.141 780.945 196.303 775.965 196.303ZM886.848 334H842.028V208.753C842.028 197.631 844.186 187.588 848.502 178.624C852.818 169.66 859.375 162.522 868.173 157.21C876.971 151.898 888.093 149.242 901.539 149.242C905.855 149.242 910.088 149.657 914.238 150.487C918.554 151.151 922.289 152.147 925.443 153.475V194.062C922.455 192.402 919.218 191.157 915.732 190.327C912.246 189.497 908.926 189.082 905.772 189.082C899.962 189.082 895.314 190.742 891.828 194.062C888.508 197.216 886.848 201.781 886.848 207.757V334ZM922.704 246.85H820.863V209.5H922.704V246.85ZM1011.15 337.984C997.701 337.984 986.579 335.577 977.781 330.763C968.983 325.783 962.426 318.977 958.11 310.345C953.794 301.713 951.636 291.919 951.636 280.963V178.375H996.456V279.469C996.456 285.445 998.116 290.093 1001.44 293.413C1004.92 296.567 1009.57 298.144 1015.38 298.144C1018.53 298.144 1022.19 297.729 1026.34 296.899C1030.65 296.069 1034.3 294.824 1037.29 293.164V332.755C1034.14 334.415 1030.07 335.66 1025.09 336.49C1020.11 337.486 1015.46 337.984 1011.15 337.984ZM1037.29 246.85H930.471V209.5H1037.29V246.85Z" fill="white"/>
</svg>
